/* XPM */
static char *_d2d56f08213403fa098136f9bc9a689KZwzdMGgOZQUrlqp[] = {
/* columns rows colors chars-per-pixel */
"64 64 2 1 ",
"  c None",
". c white",
/* pixels */
"                            ........                ....        ",
"                            ........                ....        ",
"                            ........                ....        ",
"                            ........                ....        ",
"                        ....        ....        ....    ....    ",
"                        ....        ....        ....    ....    ",
"                        ....        ....        ....    ....    ",
"                        ....        ....        ....    ....    ",
"                        ....        ................    ....    ",
"                        ....        ................    ....    ",
"                        ....        ................    ....    ",
"                        ....        ................    ....    ",
"                        ....................................    ",
"                        ....................................    ",
"                        ....................................    ",
"                        ....................................    ",
"                        ....            ........        ....    ",
"                        ....            ........        ....    ",
"                        ....            ........        ....    ",
"                        ....            ........        ....    ",
"                        ............    ............    ....    ",
"                        ............    ............    ....    ",
"                        ............    ............    ....    ",
"                        ............    ............    ....    ",
"                    ........................    ................",
"                    ........................    ................",
"                    ........................    ................",
"                    ........................    ................",
"                        ................    ....    ........    ",
"                        ................    ....    ........    ",
"                        ................    ....    ........    ",
"                        ................    ....    ........    ",
"                    ....    ............................    ....",
"                    ....    ............................    ....",
"                    ....    ............................    ....",
"                    ....    ............................    ....",
"                                                                ",
"                                                                ",
"                                                                ",
"                                                                ",
"        ....            ............                ....        ",
"        ....            ............                ....        ",
"        ....            ............                ....        ",
"        ....            ............                ....        ",
"    ....            ....................................        ",
"    ....            ....................................        ",
"    ....            ....................................        ",
"    ....            ....................................        ",
"    ....            ....................................        ",
"    ....            ....................................        ",
"    ....            ....................................        ",
"    ....            ....................................        ",
"        ....        ........................    ................",
"        ....        ........................    ................",
"        ....        ........................    ................",
"        ....        ........................    ................",
"            ................    ............                    ",
"            ................    ............                    ",
"            ................    ............                    ",
"            ................    ............                    ",
"                    ............    ........                    ",
"                    ............    ........                    ",
"                    ............    ........                    ",
"                    ............    ........                    "
};
