/* XPM */
static char *_f2b5e6287cc464e92d2d537f5dcecb4W6LbCPrkIV2di6U8[] = {
/* columns rows colors chars-per-pixel */
"64 64 2 1 ",
"  c None",
". c white",
/* pixels */
"                                                                ",
"                                                                ",
"                                                                ",
"                                                                ",
"                            ........                ....        ",
"                            ........                ....        ",
"                            ........                ....        ",
"                            ........                ....        ",
"                        ....        ....        ....    ....    ",
"                        ....        ....        ....    ....    ",
"                        ....        ....        ....    ....    ",
"                        ....        ....        ....    ....    ",
"                        ....        ................    ....    ",
"                        ....        ................    ....    ",
"                        ....        ................    ....    ",
"                        ....        ................    ....    ",
"                        ....................................    ",
"                        ....................................    ",
"                        ....................................    ",
"                        ....................................    ",
"                        ....            ........        ....    ",
"                        ....            ........        ....    ",
"                        ....            ........        ....    ",
"                        ....            ........        ....    ",
"                        ............    ............    ....    ",
"                        ............    ............    ....    ",
"                        ............    ............    ....    ",
"                        ............    ............    ....    ",
"                    ........................    ................",
"                    ........................    ................",
"                    ........................    ................",
"                    ........................    ................",
"                        ................    ....    ........    ",
"                        ................    ....    ........    ",
"                        ................    ....    ........    ",
"                        ................    ....    ........    ",
"        ....        ....    ............................    ....",
"        ....        ....    ............................    ....",
"        ....        ....    ............................    ....",
"        ....        ....    ............................    ....",
"    ....                                                        ",
"    ....                                                        ",
"    ....                                                        ",
"    ....                                                        ",
"    ....                ............                ....        ",
"    ....                ............                ....        ",
"    ....                ............                ....        ",
"    ....                ............                ....        ",
"    ....            ....................................        ",
"    ....            ....................................        ",
"    ....            ....................................        ",
"    ....            ....................................        ",
"        ....        ........................    ........        ",
"        ....        ........................    ........        ",
"        ....        ........................    ........        ",
"        ....        ........................    ........        ",
"            ................    ............    ....            ",
"            ................    ............    ....            ",
"            ................    ............    ....            ",
"            ................    ............    ....            ",
"                ................    ........    ....            ",
"                ................    ........    ....            ",
"                ................    ........    ....            ",
"                ................    ........    ....            "
};
