/* XPM */
static char *result[] = {
/* columns rows colors chars-per-pixel */
"64 64 2 1 ",
"  c #FF5EFE",
". c None",
/* pixels */
"................................................................",
"................................................................",
"................................................................",
"................................................................",
"................................................................",
"................................................................",
"................................................................",
"................................................................",
"................................................................",
"................................................................",
"................................................................",
"................................................................",
"................        ............        ....................",
"................        ............        ....................",
"................        ............        ....................",
"................        ............        ....................",
"............                ....                ................",
"............                ....                ................",
"............                ....                ................",
"............                ....                ................",
"........            ....                            ............",
"........            ....                            ............",
"........            ....                            ............",
"........            ....                            ............",
"........        ....                                ............",
"........        ....                                ............",
"........        ....                                ............",
"........        ....                                ............",
"............        ....                        ................",
"............        ....                        ................",
"............        ....                        ................",
"............        ....                        ................",
"................                            ....................",
"................                            ....................",
"................                            ....................",
"................                            ....................",
"....................                    ........................",
"....................                    ........................",
"....................                    ........................",
"....................                    ........................",
"........................            ............................",
"........................            ............................",
"........................            ............................",
"........................            ............................",
"............................    ................................",
"............................    ................................",
"............................    ................................",
"............................    ................................",
"................................................................",
"................................................................",
"................................................................",
"................................................................",
"................................................................",
"................................................................",
"................................................................",
"................................................................",
"................................................................",
"................................................................",
"................................................................",
"................................................................",
"................................................................",
"................................................................",
"................................................................",
"................................................................"
};
