/* XPM */
static char * capy_xpm[] = {
"32 32 5 1",
" 	c #FFFFFF",
".	c #000000",
"+	c #4F2C14",
"@	c #885B39",
"#	c #D78244",
"                                ",
"                                ",
"                                ",
"                                ",
"                                ",
"                                ",
"           ....                 ",
"           .++.                 ",
"    ........+@.                 ",
"   ..@@######@..                ",
"   .@@@##..####..               ",
"   .@@##########..              ",
"   .@############.......        ",
"   .@##################..       ",
"   ........#############.       ",
"          ..#######@@###.       ",
"           .############.       ",
"           .#####@@##@@#.       ",
"           ..###########..      ",
"            .############.      ",
"            .+##....####+..     ",
"            .++..  ...#+++.     ",
"            .++.     ..+++.     ",
"            .++.      .++..     ",
"            .++.      .++.      ",
"            ....      ....      ",
"                                ",
"                                ",
"                                ",
"                                ",
"                                ",
"                                "};
