/* XPM */
static char * l0_sprite_1_xpm[] = {
"64 64 2 1",
" 	c None",
".	c #000000",
"                                                                ",
"                                                                ",
"                                                                ",
"                                                                ",
"                        ..........                              ",
"                        ..........                              ",
"                    ....................                        ",
"                    ....................                        ",
"    ............    ........  ............            ......    ",
"    ............    ........  ............            ......    ",
"  ................  ........        ..........    ............  ",
"  ................  ........        ..........    ............  ",
"  ......    ..............              ......  ........  ....  ",
"  ......    ..............              ......  ........  ....  ",
"  ....        ..........                  ............    ....  ",
"  ....        ..........                  ............    ....  ",
"  ....        ........                      ........      ....  ",
"  ....        ........                      ........      ....  ",
"  ......      ......                          ....      ......  ",
"  ......      ......                          ....      ......  ",
"  ........  ......    ......        ....      ......  ......    ",
"  ........  ......    ......        ....      ......  ......    ",
"    ..............    ......        ....      ............      ",
"    ..............    ......        ....      ............      ",
"      ..........      ......        ....        ........        ",
"      ..........      ......        ....        ........        ",
"        ........      ......        ....        ......          ",
"        ........      ......        ....        ......          ",
"          ....                      ....        ......          ",
"          ....                      ....        ......          ",
"          ....                                    ....          ",
"          ....                                    ....          ",
"          ....                                  ......          ",
"          ....                                  ......          ",
"          ....                                  ......          ",
"          ....                                  ......          ",
"          ....                                ......            ",
"          ....                                ......            ",
"          ......                              ......            ",
"          ......                              ......            ",
"            ......                          ......              ",
"            ......                          ......              ",
"            ..........                  ..............          ",
"            ..........                  ..............          ",
"              ..........................................        ",
"              ..........................................        ",
"          ................................        ......        ",
"          ................................        ......        ",
"          ......                ......              ....        ",
"          ......                ......              ....        ",
"          ....                  ......              ....        ",
"          ....                  ......              ....        ",
"          ......              ........            ......        ",
"          ......              ........            ......        ",
"            ............................      ..........        ",
"            ............................      ..........        ",
"            ....................    ..................          ",
"            ....................    ..................          ",
"                                      ..........                ",
"                                      ..........                ",
"                                                                ",
"                                                                ",
"                                                                ",
"                                                                "};
