/* XPM */
static char * loose sprites_xpm[] = {
"16 16 4 1",
" 	c None",
".	c #071821",
"+	c #86C06C",
"@	c #E0F8CF",
"                ",
"     ......     ",
"    .++++++.    ",
"   .++++++++.   ",
"   .+..++..+.   ",
"  .@.@@++@@.@.  ",
"  .@+@.@@.@+@.  ",
"   .+@.@@.@+.   ",
"    .+@@@@+.    ",
"   .+......+.   ",
"  .+++@@@@+++.  ",
" .++.++@@++.++. ",
" .+@.++++++.@+. ",
"  ...++++++...  ",
"    .++..++.    ",
"    .@@..@@.    "};
